<svg xmlns="http://www.w3.org/2000/svg" width="960" height="620" viewBox="0 0 960 620" role="img" aria-label="Paper 3: Top-1 accuracy versus redundancy">
<style>
.title { font: 700 22px sans-serif; fill: #172033; }
.axis { font: 12px sans-serif; fill: #4b5563; }
.label { font: 12px sans-serif; fill: #172033; }
.grid { stroke: #d6dce7; stroke-width: 1; }
.baseline { stroke: #5b6472; stroke-width: 1.5; }
</style>
<rect width="100%" height="100%" fill="#ffffff"/>
<text class="title" x="28" y="34">Paper 3: Top-1 accuracy versus redundancy</text>
<line class="grid" x1="88.00" y1="72" x2="88.00" y2="538"/>
<text class="axis" x="88.00" y="566" text-anchor="middle">0.88</text>
<line class="grid" x1="261.00" y1="72" x2="261.00" y2="538"/>
<text class="axis" x="261.00" y="566" text-anchor="middle">1.57</text>
<line class="grid" x1="434.00" y1="72" x2="434.00" y2="538"/>
<text class="axis" x="434.00" y="566" text-anchor="middle">2.27</text>
<line class="grid" x1="607.00" y1="72" x2="607.00" y2="538"/>
<text class="axis" x="607.00" y="566" text-anchor="middle">2.97</text>
<line class="grid" x1="780.00" y1="72" x2="780.00" y2="538"/>
<text class="axis" x="780.00" y="566" text-anchor="middle">3.66</text>
<line class="grid" x1="88" y1="538.00" x2="780" y2="538.00"/>
<text class="axis" x="78" y="542.00" text-anchor="end">-0.025</text>
<line class="grid" x1="88" y1="421.50" x2="780" y2="421.50"/>
<text class="axis" x="78" y="425.50" text-anchor="end">0.066</text>
<line class="grid" x1="88" y1="305.00" x2="780" y2="305.00"/>
<text class="axis" x="78" y="309.00" text-anchor="end">0.158</text>
<line class="grid" x1="88" y1="188.50" x2="780" y2="188.50"/>
<text class="axis" x="78" y="192.50" text-anchor="end">0.249</text>
<line class="grid" x1="88" y1="72.00" x2="780" y2="72.00"/>
<text class="axis" x="78" y="76.00" text-anchor="end">0.340</text>
<line class="baseline" x1="88" y1="538" x2="780" y2="538"/>
<line class="baseline" x1="88" y1="72" x2="88" y2="538"/>
<text class="axis" x="434.00" y="600" text-anchor="middle">Redundancy ratio</text>
<text class="axis" x="26" y="305.00" text-anchor="middle" transform="rotate(-90 26 305.00)">Top-1 accuracy</text>
<circle cx="118.62" cy="111.49" r="5.5" fill="#f28e2b" opacity="0.9"/>
<text class="label" x="126.62" y="103.49">late_chunking_proxy / char_tfidf</text>
<circle cx="118.62" cy="157.95" r="5.5" fill="#4c78a8" opacity="0.9"/>
<text class="label" x="126.62" y="149.95">fixed_no_overlap / char_tfidf</text>
<circle cx="118.62" cy="157.95" r="5.5" fill="#59a14f" opacity="0.9"/>
<text class="label" x="126.62" y="149.95">sentence_boundary / char_tfidf</text>
<circle cx="118.62" cy="204.41" r="5.5" fill="#f28e2b" opacity="0.9"/>
<text class="label" x="126.62" y="196.41">late_chunking_proxy / word_tfidf</text>
<circle cx="118.62" cy="204.41" r="5.5" fill="#f28e2b" opacity="0.9"/>
<text class="label" x="126.62" y="196.41">late_chunking_proxy / lsa</text>
<circle cx="118.62" cy="250.87" r="5.5" fill="#4c78a8" opacity="0.9"/>
<text class="label" x="126.62" y="242.87">fixed_no_overlap / word_tfidf</text>
<circle cx="118.62" cy="250.87" r="5.5" fill="#4c78a8" opacity="0.9"/>
<text class="label" x="126.62" y="242.87">fixed_no_overlap / lsa</text>
<circle cx="118.62" cy="250.87" r="5.5" fill="#59a14f" opacity="0.9"/>
<text class="label" x="126.62" y="242.87">sentence_boundary / word_tfidf</text>
<circle cx="118.62" cy="250.87" r="5.5" fill="#59a14f" opacity="0.9"/>
<text class="label" x="126.62" y="242.87">sentence_boundary / lsa</text>
<circle cx="193.86" cy="274.10" r="5.5" fill="#9c755f" opacity="0.9"/>
<text class="label" x="201.86" y="266.10">fixed_overlap / char_tfidf</text>
<circle cx="193.86" cy="297.33" r="5.5" fill="#9c755f" opacity="0.9"/>
<text class="label" x="201.86" y="289.33">fixed_overlap / word_tfidf</text>
<circle cx="202.39" cy="343.79" r="5.5" fill="#9c755f" opacity="0.9"/>
<text class="label" x="210.39" y="335.79">fixed_overlap / lsa</text>
<circle cx="118.62" cy="506.41" r="5.5" fill="#e15759" opacity="0.9"/>
<text class="label" x="126.62" y="498.41">semantic_boundary / word_tfidf</text>
<circle cx="118.62" cy="506.41" r="5.5" fill="#e15759" opacity="0.9"/>
<text class="label" x="126.62" y="498.41">semantic_boundary / char_tfidf</text>
<circle cx="118.62" cy="506.41" r="5.5" fill="#e15759" opacity="0.9"/>
<text class="label" x="126.62" y="498.41">semantic_boundary / lsa</text>
<circle cx="731.01" cy="343.79" r="5.5" fill="#b07aa1" opacity="0.9"/>
<text class="label" x="739.01" y="335.79">graph_rag / char_tfidf</text>
<circle cx="731.01" cy="343.79" r="5.5" fill="#b07aa1" opacity="0.9"/>
<text class="label" x="739.01" y="335.79">graph_rag / word_tfidf</text>
<circle cx="731.01" cy="343.79" r="5.5" fill="#b07aa1" opacity="0.9"/>
<text class="label" x="739.01" y="335.79">graph_rag / lsa</text>
</svg>