<svg xmlns="http://www.w3.org/2000/svg" width="960" height="620" viewBox="0 0 960 620" role="img" aria-label="Paper 2: Top-1 accuracy versus candidates scored">
<style>
.title { font: 700 22px sans-serif; fill: #172033; }
.axis { font: 12px sans-serif; fill: #4b5563; }
.label { font: 12px sans-serif; fill: #172033; }
.grid { stroke: #d6dce7; stroke-width: 1; }
.baseline { stroke: #5b6472; stroke-width: 1.5; }
</style>
<rect width="100%" height="100%" fill="#ffffff"/>
<text class="title" x="28" y="34">Paper 2: Top-1 accuracy versus candidates scored</text>
<line class="grid" x1="88.00" y1="72" x2="88.00" y2="538"/>
<text class="axis" x="88.00" y="566" text-anchor="middle">4.49</text>
<line class="grid" x1="261.00" y1="72" x2="261.00" y2="538"/>
<text class="axis" x="261.00" y="566" text-anchor="middle">16.20</text>
<line class="grid" x1="434.00" y1="72" x2="434.00" y2="538"/>
<text class="axis" x="434.00" y="566" text-anchor="middle">27.90</text>
<line class="grid" x1="607.00" y1="72" x2="607.00" y2="538"/>
<text class="axis" x="607.00" y="566" text-anchor="middle">39.61</text>
<line class="grid" x1="780.00" y1="72" x2="780.00" y2="538"/>
<text class="axis" x="780.00" y="566" text-anchor="middle">51.31</text>
<line class="grid" x1="88" y1="538.00" x2="780" y2="538.00"/>
<text class="axis" x="78" y="542.00" text-anchor="end">0.221</text>
<line class="grid" x1="88" y1="421.50" x2="780" y2="421.50"/>
<text class="axis" x="78" y="425.50" text-anchor="end">0.289</text>
<line class="grid" x1="88" y1="305.00" x2="780" y2="305.00"/>
<text class="axis" x="78" y="309.00" text-anchor="end">0.357</text>
<line class="grid" x1="88" y1="188.50" x2="780" y2="188.50"/>
<text class="axis" x="78" y="192.50" text-anchor="end">0.425</text>
<line class="grid" x1="88" y1="72.00" x2="780" y2="72.00"/>
<text class="axis" x="78" y="76.00" text-anchor="end">0.493</text>
<line class="baseline" x1="88" y1="538" x2="780" y2="538"/>
<line class="baseline" x1="88" y1="72" x2="88" y2="538"/>
<text class="axis" x="434.00" y="600" text-anchor="middle">Average candidates scored</text>
<text class="axis" x="26" y="305.00" text-anchor="middle" transform="rotate(-90 26 305.00)">Top-1 accuracy</text>
<circle cx="641.24" cy="111.49" r="5.5" fill="#b07aa1" opacity="0.9"/>
<text class="label" x="649.24" y="103.49">graph_assisted / lsa</text>
<circle cx="193.40" cy="204.13" r="5.5" fill="#59a14f" opacity="0.9"/>
<text class="label" x="201.40" y="196.13">semantic_cache / word_tfidf</text>
<circle cx="654.76" cy="252.88" r="5.5" fill="#f28e2b" opacity="0.9"/>
<text class="label" x="662.76" y="244.88">frequency_weighted / lsa</text>
<circle cx="332.85" cy="140.74" r="5.5" fill="#59a14f" opacity="0.9"/>
<text class="label" x="340.85" y="132.74">semantic_cache / char_tfidf</text>
<circle cx="639.39" cy="228.50" r="5.5" fill="#e15759" opacity="0.9"/>
<text class="label" x="647.39" y="220.50">frequency_decay / lsa</text>
<circle cx="731.01" cy="213.88" r="5.5" fill="#4c78a8" opacity="0.9"/>
<text class="label" x="739.01" y="205.88">vanilla / word_tfidf</text>
<circle cx="731.01" cy="130.99" r="5.5" fill="#4c78a8" opacity="0.9"/>
<text class="label" x="739.01" y="122.99">vanilla / char_tfidf</text>
<circle cx="639.77" cy="316.26" r="5.5" fill="#f28e2b" opacity="0.9"/>
<text class="label" x="647.77" y="308.26">frequency_weighted / word_tfidf</text>
<circle cx="671.30" cy="272.38" r="5.5" fill="#f28e2b" opacity="0.9"/>
<text class="label" x="679.30" y="264.38">frequency_weighted / char_tfidf</text>
<circle cx="639.26" cy="287.01" r="5.5" fill="#e15759" opacity="0.9"/>
<text class="label" x="647.26" y="279.01">frequency_decay / char_tfidf</text>
<circle cx="639.26" cy="350.39" r="5.5" fill="#e15759" opacity="0.9"/>
<text class="label" x="647.26" y="342.39">frequency_decay / word_tfidf</text>
<circle cx="118.62" cy="506.41" r="5.5" fill="#59a14f" opacity="0.9"/>
<text class="label" x="126.62" y="498.41">semantic_cache / lsa</text>
<circle cx="731.01" cy="399.15" r="5.5" fill="#4c78a8" opacity="0.9"/>
<text class="label" x="739.01" y="391.15">vanilla / lsa</text>
<circle cx="642.50" cy="389.39" r="5.5" fill="#b07aa1" opacity="0.9"/>
<text class="label" x="650.50" y="381.39">graph_assisted / word_tfidf</text>
<circle cx="641.15" cy="379.64" r="5.5" fill="#b07aa1" opacity="0.9"/>
<text class="label" x="649.15" y="371.64">graph_assisted / char_tfidf</text>
</svg>